<svg xmlns="http://www.w3.org/2000/svg" viewBox="0 0 800 600" preserveAspectRatio="xMidYMid slice">
  <defs>
    <linearGradient id="p1" x1="0" y1="0" x2="1" y2="1">
      <stop offset="0" stop-color="#2A1A14"/>
      <stop offset="1" stop-color="#0B0B0B"/>
    </linearGradient>
    <radialGradient id="p1g" cx="0.3" cy="0.3" r="0.6">
      <stop offset="0" stop-color="#C62828" stop-opacity="0.5"/>
      <stop offset="1" stop-color="#C62828" stop-opacity="0"/>
    </radialGradient>
  </defs>
  <rect width="800" height="600" fill="url(#p1)"/>
  <rect width="800" height="600" fill="url(#p1g)"/>
  <g fill="#000" fill-opacity="0.55">
    <path d="M0 600 L0 480 L80 480 L80 430 L140 430 L140 460 L200 460 L200 420 L260 420 L260 380 L300 360 L340 380 L340 440 L400 440 L400 410 L460 410 L460 470 L520 470 L520 440 L580 440 L580 480 L660 480 L660 460 L720 460 L720 500 L800 500 L800 600 Z"/>
  </g>
  <g fill="#C8A96B" fill-opacity="0.5"><circle cx="300" cy="360" r="5"/></g>
  <g stroke="#C8A96B" stroke-opacity="0.3" fill="none" stroke-width="1.5">
    <path d="M0 200 Q 200 150 400 200 T 800 180"/>
  </g>
</svg>
